<svg display="none" xmlns="http://www.w3.org/2000/svg">
						<symbol id="agreed" viewBox="0 0 20 20">
							<g>
								<path d="M10.0729 11.9805L18.2745 2.97832L19.3572 3.96481L10.148 14.0729L5.12764 9.30038L6.13701 8.23872L10.0729 11.9805ZM18.7885 6.74023L17.6462 7.99793C17.812 8.63468 17.9004 9.30233 17.9004 9.99023C17.9004 14.3518 14.3518 17.9004 9.99023 17.9004C5.62866 17.9004 2.08008 14.3518 2.08008 9.99023C2.08008 5.62866 5.62866 2.08008 9.99023 2.08008C12.0108 2.08008 13.8565 2.84203 15.2562 4.09309L16.2437 3.00579C14.5222 1.46072 12.3213 0.615234 9.99023 0.615234C7.48615 0.615234 5.13176 1.59039 3.36113 3.36113C1.59039 5.13176 0.615234 7.48615 0.615234 9.99023C0.615234 12.4943 1.59039 14.8487 3.36113 16.6193C5.13176 18.3901 7.48615 19.3652 9.99023 19.3652C12.4943 19.3652 14.8487 18.3901 16.6193 16.6193C18.3901 14.8487 19.3652 12.4943 19.3652 9.99023C19.3652 8.86322 19.1671 7.76688 18.7885 6.74023Z" fill="#259756"/>
							</g>
						</symbol>
					


									<symbol id="bucket" viewBox="-5 -18 30 140">
										<g>
											<path d="M29.8751 4.24996C29.7501 4.12498 29.6251 3.99994 29.3751 3.99994H5.62506L5.00004 0.749981C5.00004 0.499961 4.62504 0.25 4.37502 0.25H0.625022C0.250081 0.249941 6.10352e-05 0.499961 6.10352e-05 0.874961C6.10352e-05 1.24996 0.250081 1.49998 0.625081 1.49998H3.8751L6.8751 16.75C7.2501 18.75 9.1251 20.25 11.1251 20.25H25.5001C25.8751 20.25 26.1251 20 26.1251 19.625C26.1251 19.25 25.8751 19 25.5001 19H11.2501C10.25 19 9.25008 18.5 8.75004 17.6249L27.0001 15.125C27.2501 15.125 27.5 14.875 27.5 14.625L30.0001 4.62496C30.0001 4.62496 30.0001 4.37494 29.8751 4.24996ZM26.375 14L8.12502 16.375L5.87502 5.12495H28.5001L26.375 14Z" fill="#33485D"/>
										</g>
									</symbol>
								

                                
								<symbol id="heart" viewBox="0 -14 30 140">
									<g>
										<path d="M29.5357 4.82626C28.5451 2.14006 26.1738 0.38253 23.3479 0.238682C23.3367 0.238389 23.3262 0.238037 23.3154 0.238037H22.9006C19.333 0.238037 16.2684 2.43485 14.9888 5.54661C13.7091 2.43485 10.6446 0.238037 7.07692 0.238037H6.66219C6.65135 0.238037 6.64051 0.23833 6.62967 0.238682C3.81012 0.382237 1.44613 2.14106 0.460988 4.82913C-0.55609 7.60433 0.137196 10.5707 2.26797 12.5697L13.4773 23.1719C13.9147 23.5656 14.4679 23.7621 15.0169 23.7621C15.5714 23.7621 16.1213 23.5618 16.5431 23.162L18.2473 21.5538C18.6751 21.126 18.9173 20.562 18.9288 19.9663C18.9403 19.3573 18.7099 18.7846 18.2793 18.3543C18.0301 18.1051 17.6262 18.1051 17.377 18.3543C17.1279 18.6034 17.1279 19.0073 17.377 19.2565C17.7589 19.6387 17.7452 20.2512 17.3585 20.6382L15.6667 22.2343C15.3046 22.5766 14.7176 22.5715 14.3424 22.234L3.14273 11.6404C1.38971 9.99579 0.821518 7.55429 1.65924 5.26812C2.46321 3.07388 4.38563 1.63633 6.67877 1.51381H7.07692C11.0877 1.51381 14.3507 4.7768 14.3507 8.78758C14.3507 9.13979 14.6365 9.42561 14.9887 9.42561C15.3409 9.42561 15.6268 9.13979 15.6268 8.78758C15.6268 4.7768 18.8897 1.51381 22.9005 1.51381H23.2987C25.5991 1.63697 27.5293 3.07417 28.3383 5.26776C29.1783 7.54561 28.6136 9.98805 26.8519 11.6546L23.2789 15.2277C22.8498 15.6568 22.6133 16.219 22.6133 16.8113C22.6133 17.4038 22.8497 17.9659 23.2789 18.395C23.528 18.6441 23.9319 18.6441 24.1811 18.395C24.4302 18.1458 24.4302 17.7419 24.1811 17.4927C23.9929 17.3045 23.8895 17.0627 23.8895 16.8113C23.8895 16.5599 23.9929 16.3181 24.1811 16.1298L27.7414 12.5692C29.8682 10.5582 30.5554 7.59126 29.5357 4.82626Z" fill="#33485D"/>
									</g>
								</symbol>
							

                            
							<symbol id="vesi" viewBox="1 -13 30 140">
								<g>
									<path d="M29.5545 15.632L26.1326 8.30251L27.6097 8.72622C27.9341 8.81932 28.2726 8.63193 28.3655 8.30728C28.4586 7.98287 28.2712 7.64461 27.9468 7.55151L17.6759 4.6041C17.678 4.56018 17.6792 4.51625 17.6792 4.47209C17.6794 3.2525 16.8561 2.18664 15.6759 1.87941C14.4957 1.57195 13.257 2.1007 12.6624 3.16537L2.39049 0.218194C2.06608 0.125095 1.72758 0.312725 1.63448 0.637138C1.54162 0.961551 1.72901 1.29981 2.05342 1.39291L4.08059 1.97466L0.409396 9.83792C0.164475 9.92362 0.000239036 10.1547 3.21511e-07 10.4144C-0.000715825 12.3984 1.19501 14.1868 3.02857 14.9443C4.86214 15.7019 6.97166 15.2789 8.37148 13.8732C9.30414 12.9639 9.83098 11.7171 9.83337 10.4144C9.83337 10.1408 9.65123 9.9007 9.38793 9.82646L5.97598 2.51869L12.3244 4.34008C12.3222 4.384 12.321 4.42793 12.321 4.47233C12.3229 5.71579 13.1787 6.79502 14.389 7.08005V21.9401C12.2929 21.9401 10.5306 21.9082 10.2335 21.9694C9.09932 22.2081 8.28507 23.2055 8.27791 24.3647V25.2202C8.28817 25.5652 8.56818 25.8411 8.91336 25.8461H21.0869C21.432 25.8411 21.712 25.5652 21.7223 25.2202V24.3647C21.7152 23.2055 20.9009 22.2081 19.7668 21.9694C19.5612 21.9082 17.6174 21.9401 15.6112 21.9401V7.08005C16.3436 6.90698 16.9697 6.4348 17.3378 5.77858L24.2548 7.76349L20.576 15.6435C20.3308 15.7292 20.1666 15.9602 20.1664 16.2197C20.1659 18.2037 21.3616 19.9921 23.1952 20.7496C25.0287 21.5072 27.138 21.0845 28.5379 19.6787C29.4705 18.7692 29.9976 17.5224 30 16.2197C29.9997 15.9461 29.8178 15.7062 29.5545 15.632ZM4.90129 3.07632L8.02821 9.77394H1.7746L4.90129 3.07632ZM4.90129 14.0639C3.10138 14.0744 1.56191 12.7729 1.27307 10.9962H8.55744C8.2464 12.7715 6.70382 14.066 4.90129 14.0639ZM20.5001 24.3647V24.6239H9.50012V24.3647C9.50012 23.6908 10.073 23.1572 10.7467 23.1572H19.2535C19.9272 23.1572 20.5001 23.6908 20.5001 24.3647ZM15.0001 5.92897C14.3787 5.92944 13.8254 5.53604 13.6218 4.94904C13.4181 4.36204 13.6089 3.71059 14.0968 3.32602C14.585 2.94145 15.2632 2.90851 15.7862 3.24414C16.3092 3.57954 16.562 4.2095 16.4162 4.81345C16.4006 4.85212 16.3892 4.89199 16.3818 4.93281C16.1829 5.52721 15.6267 5.92825 15.0001 5.92897ZM28.1948 15.5795H21.9412L25.0679 8.88187L28.1948 15.5795ZM25.0679 19.8694C23.268 19.8799 21.7285 18.5785 21.4397 16.8017H28.7241C28.413 18.577 26.8704 19.8716 25.0679 19.8694Z" fill="#33485D"/>
								</g>
							</symbol>
						

                        
									  <symbol id="poisk" viewBox="125 -9 19 140">
										  <g>
											<path d="M18.8151 16.8296L13.5799 11.6007C14.5729 10.3764 15.1706 8.81977 15.1706 7.12503C15.1706 3.19631 11.9704 0 8.03691 0C4.10342 0 0.903259 3.19631 0.903259 7.12503C0.903259 11.0537 4.10345 14.2501 8.03695 14.2501C9.73375 14.2501 11.2922 13.653 12.5181 12.6613L17.7533 17.8902C17.9 18.0366 18.1377 18.0366 18.2843 17.8902L18.8152 17.3599C18.9618 17.2135 18.9618 16.976 18.8151 16.8296ZM8.03695 12.75C4.93137 12.75 2.4051 10.2268 2.4051 7.12503C2.4051 4.02322 4.93137 1.50001 8.03695 1.50001C11.1425 1.50001 13.6688 4.02322 13.6688 7.12503C13.6688 10.2268 11.1425 12.75 8.03695 12.75Z" fill="#33485D"/>
										  </g>
									  </symbol>
								  

							<symbol id="menu" viewBox="100 -10 29 120">
                             <g>
								<path d="M1.5 2H27M27 21.5H1.5M1.5 11.5H17" stroke="white" stroke-width="3" stroke-linecap="round"/>
							 </g>
							</symbol>
							<symbol id="line" viewBox="0 0 77 2">
                             <g>
								<path d="M0 1H77" stroke="#EB5757" stroke-width="2"/>
							 </g>
							</symbol>


							<symbol id="circle" viewBox="0 0 7 7">
                             <g>
								<path d="M3.62504 0.5C1.87508 0.5 0.500061 1.87502 0.500061 3.62498C0.500061 5.375 1.87508 6.74996 3.62504 6.74996C5.37506 6.74996 6.75002 5.37494 6.75002 3.62498C6.75008 1.87502 5.37506 0.5 3.62504 0.5ZM3.62504 5.49998C2.62502 5.49998 1.75004 4.62494 1.75004 3.62498C1.75004 2.62502 2.62502 1.74998 3.62504 1.74998C4.62506 1.74998 5.50004 2.62502 5.50004 3.62498C5.50004 4.62494 4.62506 5.49998 3.62504 5.49998Z" fill="#33485D"/>
							 </g>
							</symbol>


							<symbol id="bucketwhite"  viewBox="0 0 30 21">
                             <g>
								<path d="M29.8751 4.24996C29.7501 4.12498 29.6251 3.99994 29.3751 3.99994H5.62506L5.00004 0.749981C5.00004 0.499961 4.62504 0.25 4.37502 0.25H0.625022C0.250081 0.249941 6.10352e-05 0.499961 6.10352e-05 0.874961C6.10352e-05 1.24996 0.250081 1.49998 0.625081 1.49998H3.8751L6.8751 16.75C7.2501 18.75 9.1251 20.25 11.1251 20.25H25.5001C25.8751 20.25 26.1251 20 26.1251 19.625C26.1251 19.25 25.8751 19 25.5001 19H11.2501C10.25 19 9.25008 18.5 8.75004 17.6249L27.0001 15.125C27.2501 15.125 27.5 14.875 27.5 14.625L30.0001 4.62496C30.0001 4.62496 30.0001 4.37494 29.8751 4.24996ZM26.375 14L8.12502 16.375L5.87502 5.12495H28.5001L26.375 14Z" fill="white"/>
							 </g>
							</symbol>
							<symbol id="circlewhite"  viewBox="0 0 7 7">
                             <g>
								<path d="M3.62504 0.5C1.87508 0.5 0.500061 1.87502 0.500061 3.62498C0.500061 5.375 1.87508 6.74996 3.62504 6.74996C5.37506 6.74996 6.75002 5.37494 6.75002 3.62498C6.75008 1.87502 5.37506 0.5 3.62504 0.5ZM3.62504 5.49998C2.62502 5.49998 1.75004 4.62494 1.75004 3.62498C1.75004 2.62502 2.62502 1.74998 3.62504 1.74998C4.62506 1.74998 5.50004 2.62502 5.50004 3.62498C5.50004 4.62494 4.62506 5.49998 3.62504 5.49998Z" fill="white"/>
							 </g>
							</symbol>
							<symbol id="vesi2"  viewBox="0 0 30 26">
                             <g>
								<path d="M29.5545 15.632L26.1326 8.30251L27.6097 8.72622C27.9341 8.81932 28.2726 8.63193 28.3655 8.30728C28.4586 7.98287 28.2712 7.64461 27.9468 7.55151L17.6759 4.6041C17.678 4.56018 17.6792 4.51625 17.6792 4.47209C17.6794 3.2525 16.8561 2.18664 15.6759 1.87941C14.4957 1.57195 13.257 2.1007 12.6624 3.16537L2.39049 0.218194C2.06608 0.125095 1.72758 0.312725 1.63448 0.637138C1.54162 0.961551 1.72901 1.29981 2.05342 1.39291L4.08059 1.97466L0.409396 9.83792C0.164475 9.92362 0.000239036 10.1547 3.21511e-07 10.4144C-0.000715825 12.3984 1.19501 14.1868 3.02857 14.9443C4.86214 15.7019 6.97166 15.2789 8.37148 13.8732C9.30414 12.9639 9.83098 11.7171 9.83337 10.4144C9.83337 10.1408 9.65123 9.9007 9.38793 9.82646L5.97598 2.51869L12.3244 4.34008C12.3222 4.384 12.321 4.42793 12.321 4.47233C12.3229 5.71579 13.1787 6.79502 14.389 7.08005V21.9401C12.2929 21.9401 10.5306 21.9082 10.2335 21.9694C9.09932 22.2081 8.28507 23.2055 8.27791 24.3647V25.2202C8.28817 25.5652 8.56818 25.8411 8.91336 25.8461H21.0869C21.432 25.8411 21.712 25.5652 21.7223 25.2202V24.3647C21.7152 23.2055 20.9009 22.2081 19.7668 21.9694C19.5612 21.9082 17.6174 21.9401 15.6112 21.9401V7.08005C16.3436 6.90698 16.9697 6.4348 17.3378 5.77858L24.2548 7.76349L20.576 15.6435C20.3308 15.7292 20.1666 15.9602 20.1664 16.2197C20.1659 18.2037 21.3616 19.9921 23.1952 20.7496C25.0287 21.5072 27.138 21.0845 28.5379 19.6787C29.4705 18.7692 29.9976 17.5224 30 16.2197C29.9997 15.9461 29.8178 15.7062 29.5545 15.632ZM4.90129 3.07632L8.02821 9.77394H1.7746L4.90129 3.07632ZM4.90129 14.0639C3.10138 14.0744 1.56191 12.7729 1.27307 10.9962H8.55744C8.2464 12.7715 6.70382 14.066 4.90129 14.0639ZM20.5001 24.3647V24.6239H9.50012V24.3647C9.50012 23.6908 10.073 23.1572 10.7467 23.1572H19.2535C19.9272 23.1572 20.5001 23.6908 20.5001 24.3647ZM15.0001 5.92897C14.3787 5.92944 13.8254 5.53604 13.6218 4.94904C13.4181 4.36204 13.6089 3.71059 14.0968 3.32602C14.585 2.94145 15.2632 2.90851 15.7862 3.24414C16.3092 3.57954 16.562 4.2095 16.4162 4.81345C16.4006 4.85212 16.3892 4.89199 16.3818 4.93281C16.1829 5.52721 15.6267 5.92825 15.0001 5.92897ZM28.1948 15.5795H21.9412L25.0679 8.88187L28.1948 15.5795ZM25.0679 19.8694C23.268 19.8799 21.7285 18.5785 21.4397 16.8017H28.7241C28.413 18.577 26.8704 19.8716 25.0679 19.8694Z" fill="#33485D"/>
							 </g>
							</symbol>
							<symbol id="phone"  viewBox="0 0 30 30">
                             <g>
								<path d="M29.2129 23.1434L23.1408 19.094C22.3702 18.5843 21.3373 18.752 20.7676 19.4795L18.9989 21.7536C18.7715 22.0533 18.3583 22.1403 18.0295 21.9576L17.6931 21.7721C16.5777 21.1642 15.1899 20.4073 12.3939 17.6102C9.59777 14.8132 8.83939 13.4243 8.23145 12.3111L8.04696 11.9746C7.86178 11.6458 7.94708 11.2309 8.24691 11.0017L10.5195 9.23352C11.2467 8.66378 11.4147 7.63116 10.9055 6.86036L6.85611 0.788251C6.33429 0.00332834 5.28737 -0.232301 4.47954 0.253311L1.94041 1.77857C1.1426 2.2476 0.557275 3.00722 0.307176 3.89824C-0.607161 7.22974 0.0806853 12.9794 8.55044 21.4501C15.288 28.1871 20.3037 29.9989 23.7512 29.9989C24.5446 30.0023 25.3349 29.899 26.1009 29.6919C26.9921 29.4421 27.7518 28.8568 28.2206 28.0587L29.7473 25.5211C30.2337 24.7131 29.9981 23.6655 29.2129 23.1434ZM28.8859 25.0081L27.3626 27.5473C27.0261 28.1233 26.4796 28.5468 25.8378 28.7291C22.7623 29.5735 17.3891 28.8741 9.2578 20.7428C1.12649 12.6115 0.427158 7.23876 1.27154 4.16275C1.4541 3.52019 1.87813 2.97306 2.45485 2.63596L4.99398 1.11269C5.34449 0.901789 5.79888 1.00402 6.02531 1.34463L8.22501 4.64713L10.0713 7.41621C10.2924 7.75056 10.2197 8.19867 9.90429 8.44608L7.63113 10.2143C6.93936 10.7433 6.74181 11.7004 7.16772 12.46L7.34822 12.7879C7.98715 13.9598 8.7815 15.4175 11.6816 18.3171C14.5817 21.2167 16.039 22.0111 17.2103 22.65L17.5387 22.8309C18.2982 23.2568 19.2554 23.0593 19.7844 22.3675L21.5526 20.0944C21.8 19.7791 22.248 19.7065 22.5824 19.9274L28.654 23.9768C28.9949 24.2031 29.0971 24.6577 28.8859 25.0081Z" fill="#33485D"/>
							 </g>
							</symbol>
							</svg>
						