<svg width="30" height="21" viewBox="0 0 30 21" fill="none" xmlns="http://www.w3.org/2000/svg">
<path d="M29.8751 4.24996C29.7501 4.12498 29.6251 3.99994 29.3751 3.99994H5.62506L5.00004 0.749981C5.00004 0.499961 4.62504 0.25 4.37502 0.25H0.625022C0.250081 0.249941 6.10352e-05 0.499961 6.10352e-05 0.874961C6.10352e-05 1.24996 0.250081 1.49998 0.625081 1.49998H3.8751L6.8751 16.75C7.2501 18.75 9.1251 20.25 11.1251 20.25H25.5001C25.8751 20.25 26.1251 20 26.1251 19.625C26.1251 19.25 25.8751 19 25.5001 19H11.2501C10.25 19 9.25008 18.5 8.75004 17.6249L27.0001 15.125C27.2501 15.125 27.5 14.875 27.5 14.625L30.0001 4.62496C30.0001 4.62496 30.0001 4.37494 29.8751 4.24996ZM26.375 14L8.12502 16.375L5.87502 5.12495H28.5001L26.375 14Z" fill="#33485D"/>
</svg>
